<svg width="139" height="31" viewBox="0 0 139 31" fill="none" xmlns="http://www.w3.org/2000/svg">
<g id="scraplex">
<path d="M16.5111 11.5896L11.2496 11.7313C11.1949 11.3533 11.0465 11.0185 10.8043 10.7271C10.5621 10.4278 10.2457 10.1955 9.85512 10.0301C9.47232 9.85684 9.02703 9.7702 8.51923 9.7702C7.85519 9.7702 7.28881 9.90409 6.82007 10.1719C6.35915 10.4397 6.1326 10.802 6.14041 11.2588C6.1326 11.6132 6.27322 11.9204 6.56227 12.1803C6.85913 12.4402 7.38646 12.6489 8.14425 12.8064L11.6129 13.468C13.4097 13.8145 14.7456 14.3895 15.6205 15.1928C16.5033 15.9962 16.9486 17.0595 16.9564 18.3826C16.9486 19.627 16.5815 20.71 15.8549 21.6315C15.1362 22.553 14.1518 23.2697 12.9019 23.7816C11.6519 24.2857 10.2223 24.5377 8.61298 24.5377C6.04276 24.5377 4.01548 24.0061 2.53116 22.9428C1.05465 21.8717 0.21093 20.4383 0 18.6425L5.65996 18.5008C5.78495 19.1623 6.10916 19.6664 6.63258 20.013C7.156 20.3595 7.82394 20.5328 8.63642 20.5328C9.37077 20.5328 9.9684 20.3949 10.4293 20.1193C10.8902 19.8436 11.1246 19.4774 11.1324 19.0206C11.1246 18.611 10.9449 18.2842 10.5934 18.04C10.2418 17.788 9.69107 17.5911 8.94109 17.4493L5.80058 16.8468C3.99595 16.516 2.65225 15.9056 1.76947 15.0156C0.886688 14.1178 0.449203 12.9757 0.457015 11.5896C0.449203 10.3767 0.769504 9.34096 1.41792 8.48247C2.06633 7.61611 2.98818 6.95452 4.18345 6.49771C5.37872 6.0409 6.78882 5.8125 8.41377 5.8125C10.8512 5.8125 12.773 6.32838 14.1792 7.36014C15.5854 8.38402 16.3627 9.79383 16.5111 11.5896Z" fill="white"/>
<path d="M28.1797 24.5377C26.2813 24.5377 24.6525 24.1439 23.2931 23.3563C21.9416 22.5687 20.9026 21.474 20.1761 20.072C19.4495 18.6622 19.0862 17.0319 19.0862 15.181C19.0862 13.3223 19.4495 11.6919 20.1761 10.29C20.9104 8.88021 21.9533 7.7815 23.3048 6.9939C24.6642 6.2063 26.2852 5.8125 28.168 5.8125C29.832 5.8125 31.2811 6.11573 32.5155 6.72218C33.7576 7.32863 34.7263 8.18712 35.4216 9.29764C36.1247 10.4003 36.4958 11.6959 36.5349 13.1845H31.1796C31.0702 12.2551 30.7577 11.5266 30.2421 10.9989C29.7343 10.4712 29.0703 10.2073 28.25 10.2073C27.5859 10.2073 27.0039 10.3963 26.504 10.7744C26.004 11.1446 25.6134 11.6959 25.3321 12.4284C25.0587 13.1529 24.922 14.0508 24.922 15.122C24.922 16.1931 25.0587 17.0988 25.3321 17.8392C25.6134 18.5716 26.004 19.1269 26.504 19.505C27.0039 19.8751 27.5859 20.0602 28.25 20.0602C28.7812 20.0602 29.2499 19.946 29.6562 19.7176C30.0702 19.4892 30.4101 19.1545 30.6757 18.7134C30.9413 18.2645 31.1093 17.721 31.1796 17.0831H36.5349C36.4802 18.5795 36.1091 19.8869 35.4216 21.0053C34.7419 22.1237 33.7849 22.994 32.5506 23.6162C31.3241 24.2306 29.8671 24.5377 28.1797 24.5377Z" fill="white"/>
<path d="M39.4674 24.1951V6.04878H45.0336V9.35671H45.2211C45.5492 8.15955 46.0843 7.26956 46.8265 6.68674C47.5686 6.09604 48.4319 5.80069 49.4162 5.80069C49.6819 5.80069 49.9553 5.82038 50.2365 5.85976C50.5178 5.89126 50.7795 5.94245 51.0216 6.01334V11.0343C50.7482 10.9398 50.3889 10.865 49.9436 10.8098C49.5061 10.7547 49.1155 10.7271 48.7717 10.7271C48.0921 10.7271 47.4788 10.8807 46.9319 11.1879C46.3929 11.4872 45.9671 11.9085 45.6546 12.452C45.35 12.9876 45.1976 13.6176 45.1976 14.3422V24.1951H39.4674Z" fill="white"/>
<path d="M57.7538 24.5023C56.6054 24.5023 55.5859 24.3093 54.6953 23.9234C53.8126 23.5296 53.1134 22.9389 52.5978 22.1513C52.09 21.3558 51.8361 20.3595 51.8361 19.1623C51.8361 18.1542 52.0118 17.3036 52.3634 16.6105C52.7149 15.9174 53.1993 15.3543 53.8165 14.9211C54.4336 14.4879 55.1446 14.1611 55.9492 13.9405C56.7539 13.7121 57.6132 13.5586 58.5272 13.4798C59.5506 13.3853 60.3748 13.2868 60.9998 13.1845C61.6248 13.0742 62.0779 12.9206 62.3591 12.7237C62.6482 12.5189 62.7927 12.2315 62.7927 11.8613V11.8022C62.7927 11.1958 62.5857 10.7271 62.1716 10.3963C61.7576 10.0655 61.199 9.90015 60.4959 9.90015C59.7381 9.90015 59.1288 10.0655 58.6679 10.3963C58.2069 10.7271 57.914 11.1839 57.789 11.7668L52.504 11.5777C52.6603 10.4751 53.0626 9.4906 53.711 8.62424C54.3672 7.75 55.2656 7.06479 56.4062 6.5686C57.5546 6.06453 58.9335 5.8125 60.5428 5.8125C61.6912 5.8125 62.7498 5.95033 63.7185 6.22599C64.6872 6.49377 65.5309 6.88758 66.2496 7.40739C66.9684 7.91933 67.523 8.54942 67.9136 9.29764C68.3121 10.0459 68.5113 10.9004 68.5113 11.8613V24.1951H63.1208V21.6669H62.9802C62.6599 22.2812 62.2498 22.8011 61.7498 23.2264C61.2576 23.6517 60.6756 23.9707 60.0038 24.1833C59.3397 24.396 58.5897 24.5023 57.7538 24.5023ZM59.5233 20.7218C60.1405 20.7218 60.6951 20.5958 61.1873 20.3438C61.6873 20.0917 62.0857 19.7452 62.3826 19.3041C62.6794 18.8552 62.8279 18.3354 62.8279 17.7447V16.0198C62.6638 16.1065 62.4646 16.1852 62.2302 16.2561C62.0037 16.327 61.7537 16.3939 61.4803 16.4569C61.2068 16.5199 60.9256 16.5751 60.6365 16.6223C60.3475 16.6696 60.0702 16.7129 59.8045 16.7523C59.2655 16.8389 58.8046 16.9728 58.4218 17.154C58.0468 17.3351 57.7577 17.5714 57.5546 17.8628C57.3593 18.1463 57.2617 18.485 57.2617 18.8788C57.2617 19.4774 57.4726 19.9342 57.8945 20.2492C58.3241 20.5643 58.8671 20.7218 59.5233 20.7218Z" fill="white"/>
<path d="M72.0151 31V6.04878H77.6867V9.15587H77.8625C78.0969 8.60455 78.4289 8.07292 78.8586 7.56098C79.296 7.04904 79.8507 6.63161 80.5226 6.30869C81.2022 5.9779 82.0147 5.8125 82.96 5.8125C84.2099 5.8125 85.3779 6.14329 86.4638 6.80488C87.5575 7.46646 88.4403 8.48641 89.1121 9.86471C89.784 11.243 90.1199 12.9994 90.1199 15.1338C90.1199 17.1894 89.7957 18.9103 89.1473 20.2965C88.5067 21.6827 87.6395 22.7223 86.5458 23.4154C85.4599 24.1085 84.2529 24.455 82.9248 24.455C82.0186 24.455 81.2335 24.3054 80.5694 24.0061C79.9054 23.7068 79.3468 23.313 78.8937 22.8247C78.4484 22.3364 78.1047 21.8126 77.8625 21.2534H77.7453V31H72.0151ZM77.6281 15.122C77.6281 16.0986 77.757 16.9492 78.0148 17.6738C78.2805 18.3984 78.6593 18.9615 79.1515 19.3632C79.6515 19.757 80.2491 19.9539 80.9444 19.9539C81.6475 19.9539 82.2452 19.757 82.7373 19.3632C83.2295 18.9615 83.6006 18.3984 83.8506 17.6738C84.1084 16.9492 84.2373 16.0986 84.2373 15.122C84.2373 14.1453 84.1084 13.2987 83.8506 12.5819C83.6006 11.8652 83.2295 11.31 82.7373 10.9162C82.253 10.5224 81.6553 10.3255 80.9444 10.3255C80.2413 10.3255 79.6437 10.5184 79.1515 10.9043C78.6593 11.2903 78.2805 11.8416 78.0148 12.5583C77.757 13.275 77.6281 14.1296 77.6281 15.122Z" fill="white"/>
<path d="M98.853 0V24.1951H93.1227V0H98.853Z" fill="white"/>
<path d="M110.914 24.5377C109.031 24.5377 107.406 24.1636 106.039 23.4154C104.68 22.6593 103.633 21.5842 102.899 20.1902C102.172 18.7882 101.809 17.1225 101.809 15.1928C101.809 13.3183 102.176 11.6801 102.91 10.2782C103.645 8.86839 104.68 7.77363 106.016 6.9939C107.352 6.2063 108.926 5.8125 110.738 5.8125C112.02 5.8125 113.191 6.01334 114.254 6.41501C115.316 6.81669 116.234 7.41133 117.008 8.19893C117.781 8.98654 118.383 9.95922 118.812 11.117C119.242 12.2669 119.457 13.5861 119.457 15.0747V16.516H103.813V13.1608H114.125C114.117 12.5465 113.973 11.9991 113.691 11.5187C113.41 11.0382 113.023 10.6641 112.531 10.3963C112.047 10.1207 111.488 9.98285 110.855 9.98285C110.215 9.98285 109.641 10.1286 109.133 10.42C108.625 10.7035 108.223 11.0934 107.926 11.5896C107.629 12.0779 107.473 12.6331 107.457 13.2553V16.6696C107.457 17.4099 107.602 18.0597 107.891 18.6189C108.18 19.1702 108.59 19.5995 109.121 19.9066C109.652 20.2138 110.285 20.3674 111.02 20.3674C111.527 20.3674 111.988 20.2965 112.402 20.1547C112.816 20.013 113.172 19.8042 113.469 19.5286C113.766 19.2529 113.988 18.9143 114.137 18.5126L119.398 18.6662C119.179 19.8554 118.699 20.8911 117.957 21.7732C117.222 22.6475 116.258 23.3288 115.062 23.8171C113.867 24.2975 112.484 24.5377 110.914 24.5377Z" fill="white"/>
<path d="M127 6.04878L129.965 12.0267L133.035 6.04878H138.813L133.785 15.122L139 24.1951H133.27L129.965 18.17L126.743 24.1951H120.93L126.157 15.122L121.188 6.04878H127Z" fill="white"/>
</g>
</svg>
